HIERARCHY
ROOT Hips
{
  OFFSET 0.0 0.0 0.0
  CHANNELS 6 XPOSITION YPOSITION ZPOSITION ZROTATION XROTATION YROTATION 
  JOINT LeftUpLeg
  {
    OFFSET 0.089458 -0.0866707 0.00101652
    CHANNELS 3 ZROTATION XROTATION YROTATION 
    JOINT LeftLeg
    {
      OFFSET 0.0 -0.444227 0.013727
      CHANNELS 3 ZROTATION XROTATION YROTATION 
      JOINT LeftFoot
      {
        OFFSET -0.00253549 -0.420924 -0.0146059
        CHANNELS 3 ZROTATION XROTATION YROTATION 
        End Site
        {
          OFFSET -0.0004 -0.0441509 0.084991
        }
      }
    }
  }
  JOINT Spine
  {
    OFFSET 0.0 0.118905 0.0
    CHANNELS 3 ZROTATION XROTATION YROTATION 
    JOINT Spine1
    {
      OFFSET 0.0 0.256574 0.00127663
      CHANNELS 3 ZROTATION XROTATION YROTATION 
      End Site
      {
        OFFSET -0.0029 0.2150836 0.02525291
      }
      JOINT RightArm
      {
        OFFSET -0.162727 -0.05365632 0.00102123
        CHANNELS 3 ZROTATION XROTATION YROTATION 
        JOINT RightForeArm
        {
          OFFSET -0.26364 0.00099144 -0.0142434
          CHANNELS 3 ZROTATION XROTATION YROTATION 
          End Site
          {
            OFFSET -0.220324 0.00085362 0.0102216
          }
        }
      }
      JOINT LeftArm
      {
        OFFSET 0.162727 -0.0536563199 0.00102123
        CHANNELS 3 ZROTATION XROTATION YROTATION 
        JOINT LeftForeArm
        {
          OFFSET 0.262597 0.00099144 -0.0142434
          CHANNELS 3 ZROTATION XROTATION YROTATION 
          End Site
          {
            OFFSET 0.220902 0.00085362 0.0102216
          }
        }
      }
    }
  }
  JOINT RightUpLeg
  {
    OFFSET -0.089458 -0.0866707 0.00101652
    CHANNELS 3 ZROTATION XROTATION YROTATION 
    JOINT RightLeg
    {
      OFFSET 0.0 -0.444227 0.013727
      CHANNELS 3 ZROTATION XROTATION YROTATION 
      JOINT RightFoot
      {
        OFFSET 0.00253549 -0.420924 -0.0146059
        CHANNELS 3 ZROTATION XROTATION YROTATION 
        End Site
        {
          OFFSET 0.0004 -0.0441509 0.084991
        }
      }
    }
  }
}
MOTION
Frames: 13
Frame Time: 0.033333
1.95769 1.02921392377 0.039193 -4.1127604158 -0.49068303113 -91.3519974695 -0.982471912574 2.24876016983 1.8531201815 0.344177981393 9.18191038616 17.1548994873 -3.20288018061 -11.1913998513 -0.0527114980018 0.454587028831 8.74931010979 -0.0634835000656 -0.0708577965123 -3.13563995644 0.0566493021615 78.7370683745 -20.2261299061 6.31072084023 8.2039801225 41.0902028958 6.84979992378 -72.9281564099 -9.83647217376 0.876585197419 -4.0902997656 36.1186004065 -14.7956001763 -0.556325044396 3.08776011691 -4.05542012394 -0.258608997945 10.5633998156 -8.23215977547 3.1525700744 -13.5812002258 -0.046655498101 
1.95769 1.02921392377 0.0392908 -4.11761027699 -0.486266033171 -91.3734989051 -0.989096022131 2.25689001594 1.8531299999 0.345111022586 9.17961031996 17.2059005099 -3.21847990578 -11.2223995186 -0.0527172009429 0.513819016282 8.78624948037 -0.0433394979549 -0.170263996167 -3.23015013776 0.0949934972442 78.7212701469 -20.2074237255 6.21803261188 8.18582035704 41.0038010028 6.89961035896 -72.9074472763 -9.8228382624 0.910384815414 -4.07481999562 36.2078982997 -14.796600799 -0.556990027344 3.08975004984 -4.05542012394 -0.259507994914 10.5633998156 -8.23215977547 3.1260501574 -13.5812002258 -0.046655498101 
1.95769 1.02921392377 0.039424 -4.1200396899 -0.488125979059 -91.387002189 -1.00142003127 2.25685992042 1.85044018603 0.343789994631 9.19231020295 17.2378999461 -3.23496990343 -11.2486001243 -0.0527219000331 0.592700017233 8.83929955966 -0.0288833025249 -0.331608005401 -3.3699500228 0.137599003327 78.6950148997 -20.0796701598 6.07158780654 8.14127983969 40.8163976875 7.02959995793 -72.8703047076 -9.87094157718 0.955143685375 -4.06482999018 36.3733971984 -14.7711002878 -0.562175048059 3.09074000038 -4.05543036922 -0.265174010357 10.5634006694 -8.23269936041 3.0703198692 -13.5812002258 -0.046655498101 
1.95771 1.02921392377 0.0395518 -4.0961698863 -0.500940000911 -91.3840993586 -1.0189999777 2.22340992273 1.83731000112 0.338980981167 9.21064072313 17.2260990868 -3.23270996459 -11.2408999398 -0.0527204993107 0.61126399115 8.8436102628 -0.0342604990161 -0.405117996385 -3.42750012953 0.143420005367 78.7223902979 -20.0724540649 6.05996495901 8.12493007436 40.9261998086 7.03319989451 -72.8657148205 -9.98859158563 0.975708317749 -4.06466990762 36.4893977162 -14.7370996061 -0.576883006663 3.06249994293 -4.05532023242 -0.275910987691 10.5633998156 -8.23064005837 3.03130006568 -13.5812002258 -0.046655498101 
1.95779 1.02920392377 0.0396999 -4.0580002279 -0.510696019006 -91.3839969058 -1.03407004305 2.17121980695 1.82234996585 0.332640004296 9.22045997384 17.2194003788 -3.20314015468 -11.2211000751 -0.0527169007881 0.58299101005 8.81641927971 -0.0421686007599 -0.354194000243 -3.39735999883 0.12524700642 78.8175075123 -20.3197939978 6.2159972155 8.17630078089 41.41910041 6.81139974649 -72.9126382201 -10.0435063066 0.977506151604 -4.04788002198 36.4845004706 -14.7498003428 -0.594221975479 3.01427005621 -4.05556014282 -0.280012996535 10.5636994902 -8.21947013776 3.04947007642 -13.5840006034 -0.0466560984106 
1.9579 1.02916392377 0.0398625 -4.0423300664 -0.503295989288 -91.3842018115 -1.03381999409 2.14039985898 1.82654007346 0.324552980278 9.22559029968 17.2345002195 -3.15508998731 -11.2214996412 -0.0527170008397 0.57718001317 8.80106074559 -0.042824098817 -0.279632987221 -3.33210992102 0.112091008201 78.9166613685 -20.6008972632 6.39398981084 8.26226981065 41.8730006313 6.53854009245 -72.969356111 -9.98946755739 0.954784033226 -4.01386994878 36.4111988804 -14.8053007525 -0.598867998219 2.98949994829 -4.05964971858 -0.271591986938 10.5654002073 -8.22588966181 3.09765001739 -13.5958996467 -0.0466583995974 
1.95797 1.02910392377 0.0400038 -4.05312005774 -0.488714015658 -91.3661974328 -1.02655000477 2.14130998169 1.83592987602 0.32032498646 9.23052938022 17.2426998616 -3.11543006701 -11.2416000342 -0.0527207027489 0.604603009244 8.75993020018 -0.0536493983677 -0.274551993489 -3.21223988765 0.102194004063 78.9726347687 -20.6957959116 6.50960954556 8.32735041438 42.0015003953 6.39647984168 -72.9808581495 -9.97399034873 0.879978840941 -3.99717013626 36.3323989879 -14.8408006607 -0.599117993815 2.99109992011 -4.07625988487 -0.252929028639 10.5808005763 -8.24742951713 3.11246000194 -13.6074998692 -0.0466606974491 
1.95801 1.02909392377 0.0401188 -4.05958013603 -0.489967995701 -91.3385010157 -1.03961999864 2.14432999252 1.81737993601 0.330044985979 9.23384031442 17.238598333 -3.1128000173 -11.2584996297 -0.0527238010134 0.619122017068 8.66361001873 -0.0865172991853 -0.338916974824 -3.04023992953 0.0815003985079 79.0095724318 -20.6414378511 6.59734631366 8.37416026208 41.9198010875 6.35630979162 -72.9333132027 -10.0912962864 0.783518854057 -3.99794024009 36.2377018302 -14.8486007367 -0.619715016226 2.98012978253 -4.10911992497 -0.231379995251 10.6235993954 -8.24305990361 3.08717997772 -13.6140995395 -0.0466620014549 
1.95807 1.02908392377 0.0402265 -4.05130023921 -0.508400008228 -91.3249977318 -1.07444008958 2.12937998909 1.77860996801 0.347836988436 9.24286043299 17.2389005689 -3.14551000667 -11.2663995973 -0.0527252017358 0.623973959339 8.63385003074 -0.120590991861 -0.445077004268 -2.98957998957 0.0649982012357 79.0474868119 -20.5373099096 6.62600450676 8.42806069992 41.73899915 6.34292048642 -72.8484890834 -10.1944210438 0.766726353735 -3.96430966928 36.1272986524 -14.8984013535 -0.656492970225 2.95377997993 -4.14131999804 -0.219276993424 10.6573004025 -8.20890042002 3.07300007811 -13.6267994225 -0.0466644994099 
1.95812 1.02906392377 0.0403199 -4.04620022233 -0.518973994837 -91.3151007877 -1.09307999599 2.10709009362 1.76522994759 0.351619018926 9.26562972236 17.2407003237 -3.16986005795 -11.2774995084 -0.0527272961493 0.671888963666 8.79133967885 -0.13320399004 -0.575571983868 -3.20186995294 0.0736657046224 79.0541189255 -20.3804033889 6.49501812706 8.46536975449 41.4312991279 6.39761023799 -72.7577226995 -10.1393978936 0.85674413821 -3.89242022072 36.0664997236 -14.9950997567 -0.675479028488 2.94679995348 -4.15159985962 -0.216694995154 10.6532996192 -8.19734032485 3.09003008759 -13.6422996831 -0.0466676010094 
1.95814 1.02903392377 0.0403853 -4.04482991563 -0.507333965109 -91.2817011626 -1.0744800035 2.08656003908 1.78735997395 0.337537996983 9.29015010148 17.2031001323 -3.14511001372 -11.2935000803 -0.0527301976457 0.757314993389 9.01754956775 -0.133192010528 -0.691268024611 -3.51296991515 0.0939112991269 79.0142442812 -20.1852614692 6.25612841886 8.45130041857 41.1099011614 6.53654012769 -72.6878362039 -10.0273161969 0.94132845384 -3.87006970732 36.0806006491 -15.0280007779 -0.667776976342 2.95296996218 -4.1486201896 -0.207217000443 10.6437006421 -8.22676990244 3.10637003452 -13.6463995041 -0.0466171983488 
1.95817 1.02901392377 0.0404406 -4.02759009128 -0.492175961072 -91.2425983296 -1.04979996871 2.05912999937 1.80521003301 0.322639993701 9.30042953619 17.1473009019 -3.09205993444 -11.3015998309 -0.0527316984197 0.81678902567 9.10781990914 -0.140735007311 -0.771397989684 -3.66667008893 0.101364996523 78.9776549578 -20.0621473094 6.10375287489 8.42462938363 40.9602004903 6.63576015133 -72.6388091061 -10.0085297616 0.94081853753 -3.95131011174 36.108399519 -14.935499526 -0.664417003518 2.92882993922 -4.15645996611 -0.185028997522 10.6683004222 -8.24747988977 3.10819006649 -13.6436998718 -0.0466497984949 
1.95818 1.02900392377 0.0404986 -3.99739980137 -0.495750978133 -91.2416967446 -1.0502699711 2.02346979516 1.8025200057 0.31231800372 9.30789066408 17.1317007498 -3.07263999908 -11.2984997788 -0.0527311014451 0.842109977666 9.10119974829 -0.156324006958 -0.871238973568 -3.70675006587 0.10210999407 78.9860355999 -20.0285103353 6.07901563727 8.45673041896 40.8787982957 6.61393983136 -72.5849120833 -10.0362893579 0.934270200385 -4.05824995669 36.0973994994 -14.8170999043 -0.681533991187 2.87858002405 -4.17046996475 -0.171398007672 10.7032009813 -8.23291963401 3.11497991486 -13.6492997732 -0.0470053018371 
